<svg width="17" height="31" viewBox="0 0 17 31" fill="none" xmlns="http://www.w3.org/2000/svg">
<path d="M15.2818 30.0751V6.43077C15.2817 6.17738 15.2019 5.93044 15.0538 5.72486C14.9057 5.51927 14.6967 5.36546 14.4564 5.28516L2.38887 1.26266C2.20742 1.20185 2.0141 1.18512 1.8249 1.21387C1.6357 1.24261 1.45607 1.316 1.30087 1.42796C1.14567 1.53992 1.01936 1.68723 0.932396 1.8577C0.845434 2.02817 0.80032 2.2169 0.800785 2.40827V30.0751" stroke="#A0A3BD" stroke-width="1.6" stroke-linecap="round" stroke-linejoin="round"/>
<path d="M10.4531 22.4551V23.6618" stroke="#A0A3BD" stroke-width="1.6" stroke-linecap="round" stroke-linejoin="round"/>
<path d="M10.4531 16.4213V17.628" stroke="#A0A3BD" stroke-width="1.6" stroke-linecap="round" stroke-linejoin="round"/>
<path d="M10.4531 10.3875V11.5942" stroke="#A0A3BD" stroke-width="1.6" stroke-linecap="round" stroke-linejoin="round"/>
<path d="M5.62891 22.4551V23.6618" stroke="#A0A3BD" stroke-width="1.6" stroke-linecap="round" stroke-linejoin="round"/>
<path d="M5.62891 16.4213V17.628" stroke="#A0A3BD" stroke-width="1.6" stroke-linecap="round" stroke-linejoin="round"/>
<path d="M5.62891 10.3875V11.5942" stroke="#A0A3BD" stroke-width="1.6" stroke-linecap="round" stroke-linejoin="round"/>
</svg>
