<svg width="34" height="30" viewBox="0 0 34 30" fill="none" xmlns="http://www.w3.org/2000/svg">
<path d="M16.1071 0.770918C16.4767 0.0378776 17.5233 0.0378771 17.8929 0.770917L22.1391 9.19241C22.2912 9.49407 22.5854 9.69854 22.9211 9.73602L32.7811 10.8367C33.6504 10.9337 33.985 12.0213 33.3206 12.5901L26.1612 18.7201C25.883 18.9583 25.7572 19.3296 25.8335 19.6878L27.7301 28.6005C27.9055 29.4245 27.0457 30.0827 26.296 29.6986L17.456 25.1687C17.1697 25.022 16.8303 25.022 16.544 25.1687L7.70403 29.6986C6.95428 30.0827 6.09454 29.4245 6.26989 28.6004L8.16653 19.6878C8.24277 19.3296 8.11704 18.9583 7.83882 18.7201L0.679412 12.5901C0.0150044 12.0213 0.34958 10.9337 1.21885 10.8367L11.0789 9.73602C11.4146 9.69854 11.7088 9.49407 11.8609 9.19241L16.1071 0.770918Z" fill="#FFD029"/>
</svg>
