<svg width="17" height="29" viewBox="0 0 17 29" fill="none" xmlns="http://www.w3.org/2000/svg">
<path d="M13.4582 1.63757H3.28431C2.03566 1.63757 1.02344 2.6498 1.02344 3.89844V25.3767C1.02344 26.6253 2.03566 27.6376 3.28431 27.6376H13.4582C14.7069 27.6376 15.7191 26.6253 15.7191 25.3767V3.89844C15.7191 2.6498 14.7069 1.63757 13.4582 1.63757Z" stroke="#A0A3BD" stroke-width="1.6" stroke-linecap="round" stroke-linejoin="round"/>
<path d="M12.0744 1.63757V3.1188C12.0744 3.51165 11.9183 3.8884 11.6405 4.16619C11.3628 4.44397 10.986 4.60003 10.5932 4.60003H6.14947C5.75663 4.60003 5.37987 4.44397 5.10209 4.16619C4.8243 3.8884 4.66824 3.51165 4.66824 3.1188V1.63757" stroke="#A0A3BD" stroke-width="1.6" stroke-linecap="round" stroke-linejoin="round"/>
</svg>
